<svg xmlns="http://www.w3.org/2000/svg" viewBox="0 0 1200 630">
  <rect width="1200" height="630" fill="#0A0A0A"/>
  <line x1="80" y1="0" x2="80" y2="630" stroke="#C9A94E" stroke-width="1" opacity="0.15"/>
  <line x1="1120" y1="0" x2="1120" y2="630" stroke="#C9A94E" stroke-width="1" opacity="0.15"/>
  <line x1="0" y1="80" x2="1200" y2="80" stroke="#C9A94E" stroke-width="0.5" opacity="0.1"/>
  <line x1="0" y1="550" x2="1200" y2="550" stroke="#C9A94E" stroke-width="0.5" opacity="0.1"/>
  <line x1="350" y1="200" x2="850" y2="200" stroke="#C9A94E" stroke-width="2" opacity="0.2"/>
  <rect x="350" y="190" width="30" height="20" rx="2" fill="#C9A94E" opacity="0.15"/>
  <rect x="820" y="190" width="30" height="20" rx="2" fill="#C9A94E" opacity="0.15"/>
  <rect x="520" y="220" width="160" height="160" fill="none" stroke="#C9A94E" stroke-width="2.5"/>
  <rect x="528" y="228" width="144" height="144" fill="none" stroke="#C9A94E" stroke-width="0.5" opacity="0.3"/>
  <text x="600" y="322" font-family="Georgia, serif" font-size="80" font-weight="700" fill="#C9A94E" text-anchor="middle" letter-spacing="5">JP</text>
  <text x="600" y="430" font-family="Georgia, serif" font-size="42" font-weight="600" fill="#FFFFFF" text-anchor="middle" letter-spacing="8">JOHNSON</text>
  <text x="600" y="478" font-family="Georgia, serif" font-size="42" font-weight="600" fill="#C9A94E" text-anchor="middle" letter-spacing="8">PERFORMANCE</text>
  <line x1="420" y1="510" x2="560" y2="510" stroke="#C9A94E" stroke-width="0.5" opacity="0.4"/>
  <text x="600" y="538" font-family="Helvetica, sans-serif" font-size="13" fill="#999999" text-anchor="middle" letter-spacing="8">PRIVATE TRAINING STUDIO</text>
  <line x1="640" y1="510" x2="780" y2="510" stroke="#C9A94E" stroke-width="0.5" opacity="0.4"/>
  <polyline points="100,100 100,80 120,80" fill="none" stroke="#C9A94E" stroke-width="2" opacity="0.5"/>
  <polyline points="1100,100 1100,80 1080,80" fill="none" stroke="#C9A94E" stroke-width="2" opacity="0.5"/>
  <polyline points="100,530 100,550 120,550" fill="none" stroke="#C9A94E" stroke-width="2" opacity="0.5"/>
  <polyline points="1100,530 1100,550 1080,550" fill="none" stroke="#C9A94E" stroke-width="2" opacity="0.5"/>
</svg>